<?xml version="1.0" standalone="no"?>
<!DOCTYPE svg PUBLIC "-//W3C//DTD SVG 20010904//EN"
 "http://www.w3.org/TR/2001/REC-SVG-20010904/DTD/svg10.dtd">
<svg version="1.0" xmlns="http://www.w3.org/2000/svg"
 width="400.000000pt" height="400.000000pt" viewBox="0 0 400.000000 400.000000"
 preserveAspectRatio="xMidYMid meet">
<metadata>
Created by potrace 1.11, written by Peter Selinger 2001-2013
</metadata>
<g transform="translate(0.000000,400.000000) scale(0.100000,-0.100000)"
fill="#000000" stroke="none">
<path d="M2037 3984 c-1 -1 -29 -4 -62 -7 -91 -9 -144 -22 -341 -87 -193 -64
-263 -75 -370 -58 -32 5 -78 17 -101 28 l-43 19 0 -23 c0 -31 28 -123 51 -168
11 -21 15 -38 10 -38 -6 0 -22 17 -36 38 l-26 37 5 -34 c7 -51 -16 -22 -30 37
l-11 47 -19 -42 c-21 -48 -32 -48 -93 -7 -19 13 -37 22 -39 20 -4 -5 57 -155
69 -172 5 -6 9 -53 8 -105 0 -86 -3 -98 -29 -139 -64 -100 -91 -227 -91 -430
0 -166 16 -261 60 -376 17 -43 31 -91 31 -106 0 -23 -4 -27 -24 -26 -67 6
-108 -57 -112 -172 -5 -149 55 -323 155 -446 82 -102 134 -130 196 -110 18 6
22 -1 38 -57 28 -96 99 -258 151 -341 26 -41 73 -98 106 -128 l60 -53 3 -81
c2 -44 1 -87 -2 -96 -9 -24 -205 -183 -284 -230 -63 -38 -69 -39 -85 -25 -18
17 -77 14 -113 -4 -8 -4 -40 -10 -70 -14 -55 -6 -70 -8 -147 -20 -23 -4 -52
-8 -65 -9 -232 -28 -412 -158 -523 -378 -27 -54 -84 -206 -84 -224 0 -2 812
-4 1804 -4 l1805 0 -19 68 c-40 146 -115 290 -190 369 -105 111 -289 174 -580
198 -35 3 -87 12 -115 20 -70 20 -114 25 -121 14 -3 -5 -9 -9 -13 -9 -31 0
-309 224 -317 255 -6 26 2 153 11 178 4 9 11 17 15 17 16 0 104 95 139 150 32
50 70 126 114 230 9 19 25 67 38 105 12 39 23 71 24 72 1 2 15 -1 31 -6 52
-15 105 20 183 118 76 97 115 189 140 331 29 163 -8 278 -91 285 -15 1 -15 13
-2 75 16 77 18 191 4 240 -8 28 -5 53 11 120 28 109 30 260 5 345 -55 186
-238 410 -360 441 -31 7 -32 15 -6 39 12 11 29 16 44 13 14 -3 23 -1 20 3 -3
5 -20 9 -37 9 -18 0 -27 4 -22 8 6 4 26 25 45 47 l35 39 -30 -18 c-16 -10 -40
-28 -52 -39 -28 -25 -28 -22 -2 48 12 31 19 58 16 61 -4 4 -50 -83 -61 -116
-2 -8 -5 8 -6 35 -1 38 -4 45 -10 30 -5 -11 -9 -36 -9 -55 l-1 -35 -24 30
c-121 152 -285 243 -479 263 -42 5 -78 7 -80 6z"/>
</g>
</svg>
